<mxfile host="www.draw.io" modified="2020-02-01T05:15:47.528Z" agent="Mozilla/5.0 (Windows NT 6.1; WOW64) AppleWebKit/537.36 (KHTML, like Gecko) Chrome/79.0.3945.130 Safari/537.36" etag="Vgm99L_0hQnfhr9U4LoJ" version="12.6.2" type="github">
  <diagram id="rbczddg0I_P9DbNheW-Y" name="Page-1">
    <mxGraphModel dx="1422" dy="762" grid="0" gridSize="10" guides="1" tooltips="1" connect="1" arrows="1" fold="1" page="0" pageScale="1" pageWidth="827" pageHeight="1169" math="0" shadow="0">
      <root>
        <mxCell id="0"/>
        <mxCell id="1" parent="0"/>
        <mxCell id="yGDHoKhCgxfb6R4P_Ic5-2" value="&lt;h1&gt;Whois&lt;/h1&gt;&lt;div&gt;通过whois可以获取域名谈心拥有者的信息。&lt;/div&gt;" style="text;html=1;strokeColor=none;fillColor=none;spacing=5;spacingTop=-20;whiteSpace=wrap;overflow=hidden;rounded=0;fontSize=16;" vertex="1" parent="1">
          <mxGeometry x="283" y="160" width="190" height="114" as="geometry"/>
        </mxCell>
        <mxCell id="yGDHoKhCgxfb6R4P_Ic5-3" value="" style="endArrow=none;dashed=1;html=1;fontSize=16;exitX=1;exitY=0.5;exitDx=0;exitDy=0;" edge="1" parent="1" target="yGDHoKhCgxfb6R4P_Ic5-2">
          <mxGeometry width="50" height="50" relative="1" as="geometry">
            <mxPoint x="164" y="217" as="sourcePoint"/>
            <mxPoint x="241" y="193" as="targetPoint"/>
          </mxGeometry>
        </mxCell>
        <mxCell id="yGDHoKhCgxfb6R4P_Ic5-6" style="edgeStyle=orthogonalEdgeStyle;rounded=0;orthogonalLoop=1;jettySize=auto;html=1;exitX=0.5;exitY=1;exitDx=0;exitDy=0;fontSize=16;" edge="1" parent="1" source="yGDHoKhCgxfb6R4P_Ic5-4" target="yGDHoKhCgxfb6R4P_Ic5-5">
          <mxGeometry relative="1" as="geometry"/>
        </mxCell>
        <mxCell id="yGDHoKhCgxfb6R4P_Ic5-4" value="&lt;span style=&quot;white-space: normal&quot;&gt;域名&lt;/span&gt;" style="rounded=0;whiteSpace=wrap;html=1;fontSize=16;" vertex="1" parent="1">
          <mxGeometry x="42" y="187" width="120" height="60" as="geometry"/>
        </mxCell>
        <mxCell id="yGDHoKhCgxfb6R4P_Ic5-8" style="edgeStyle=orthogonalEdgeStyle;rounded=0;orthogonalLoop=1;jettySize=auto;html=1;exitX=0.5;exitY=1;exitDx=0;exitDy=0;entryX=0.5;entryY=0;entryDx=0;entryDy=0;fontSize=16;" edge="1" parent="1" source="yGDHoKhCgxfb6R4P_Ic5-5" target="yGDHoKhCgxfb6R4P_Ic5-7">
          <mxGeometry relative="1" as="geometry"/>
        </mxCell>
        <mxCell id="yGDHoKhCgxfb6R4P_Ic5-12" style="edgeStyle=orthogonalEdgeStyle;rounded=0;orthogonalLoop=1;jettySize=auto;html=1;exitX=1;exitY=0.5;exitDx=0;exitDy=0;fontSize=16;endArrow=none;endFill=0;dashed=1;" edge="1" parent="1" source="yGDHoKhCgxfb6R4P_Ic5-5" target="yGDHoKhCgxfb6R4P_Ic5-11">
          <mxGeometry relative="1" as="geometry"/>
        </mxCell>
        <mxCell id="yGDHoKhCgxfb6R4P_Ic5-5" value="&lt;span style=&quot;white-space: normal&quot;&gt;IP地址&lt;/span&gt;" style="rounded=0;whiteSpace=wrap;html=1;fontSize=16;" vertex="1" parent="1">
          <mxGeometry x="42" y="333" width="120" height="60" as="geometry"/>
        </mxCell>
        <mxCell id="yGDHoKhCgxfb6R4P_Ic5-10" style="edgeStyle=orthogonalEdgeStyle;rounded=0;orthogonalLoop=1;jettySize=auto;html=1;exitX=0.5;exitY=1;exitDx=0;exitDy=0;fontSize=16;" edge="1" parent="1" source="yGDHoKhCgxfb6R4P_Ic5-7" target="yGDHoKhCgxfb6R4P_Ic5-9">
          <mxGeometry relative="1" as="geometry"/>
        </mxCell>
        <mxCell id="yGDHoKhCgxfb6R4P_Ic5-16" style="edgeStyle=orthogonalEdgeStyle;rounded=0;orthogonalLoop=1;jettySize=auto;html=1;exitX=1;exitY=0.5;exitDx=0;exitDy=0;dashed=1;endArrow=none;endFill=0;fontSize=16;" edge="1" parent="1" source="yGDHoKhCgxfb6R4P_Ic5-7" target="yGDHoKhCgxfb6R4P_Ic5-15">
          <mxGeometry relative="1" as="geometry"/>
        </mxCell>
        <mxCell id="yGDHoKhCgxfb6R4P_Ic5-7" value="服务器" style="rounded=0;whiteSpace=wrap;html=1;fontSize=16;" vertex="1" parent="1">
          <mxGeometry x="42" y="485" width="120" height="60" as="geometry"/>
        </mxCell>
        <mxCell id="yGDHoKhCgxfb6R4P_Ic5-14" style="edgeStyle=orthogonalEdgeStyle;rounded=0;orthogonalLoop=1;jettySize=auto;html=1;exitX=1;exitY=0.5;exitDx=0;exitDy=0;dashed=1;endArrow=none;endFill=0;fontSize=16;" edge="1" parent="1" source="yGDHoKhCgxfb6R4P_Ic5-9" target="yGDHoKhCgxfb6R4P_Ic5-13">
          <mxGeometry relative="1" as="geometry"/>
        </mxCell>
        <mxCell id="yGDHoKhCgxfb6R4P_Ic5-9" value="数据库" style="rounded=0;whiteSpace=wrap;html=1;fontSize=16;" vertex="1" parent="1">
          <mxGeometry x="42" y="637" width="120" height="60" as="geometry"/>
        </mxCell>
        <mxCell id="yGDHoKhCgxfb6R4P_Ic5-11" value="&lt;h1&gt;IP地址&lt;/h1&gt;&lt;div&gt;通过IP地址可以获取服务器所在区块。&lt;/div&gt;" style="text;html=1;strokeColor=none;fillColor=none;spacing=5;spacingTop=-20;whiteSpace=wrap;overflow=hidden;rounded=0;fontSize=16;" vertex="1" parent="1">
          <mxGeometry x="283" y="306" width="190" height="114" as="geometry"/>
        </mxCell>
        <mxCell id="yGDHoKhCgxfb6R4P_Ic5-13" value="&lt;h1&gt;数据库&lt;/h1&gt;&lt;div&gt;数据库不直接对外服务，因此不会直接暴露任何信息。但数据需要考虑访问数据的问题。&lt;/div&gt;" style="text;html=1;strokeColor=none;fillColor=none;spacing=5;spacingTop=-20;whiteSpace=wrap;overflow=hidden;rounded=0;fontSize=16;" vertex="1" parent="1">
          <mxGeometry x="275" y="585.5" width="190" height="163" as="geometry"/>
        </mxCell>
        <mxCell id="yGDHoKhCgxfb6R4P_Ic5-15" value="&lt;h1&gt;服务器&lt;/h1&gt;&lt;div&gt;服务器与IP地址绑定，IP地址暴露，则表明服务器地址暴露。&lt;/div&gt;" style="text;html=1;strokeColor=none;fillColor=none;spacing=5;spacingTop=-20;whiteSpace=wrap;overflow=hidden;rounded=0;fontSize=16;" vertex="1" parent="1">
          <mxGeometry x="275" y="447" width="190" height="136" as="geometry"/>
        </mxCell>
      </root>
    </mxGraphModel>
  </diagram>
</mxfile>
